<?xml version="1.0" standalone="no"?>
<!DOCTYPE svg PUBLIC "-//W3C//DTD SVG 20010904//EN"
 "http://www.w3.org/TR/2001/REC-SVG-20010904/DTD/svg10.dtd">
<svg version="1.0" xmlns="http://www.w3.org/2000/svg"
 width="512.000000pt" height="512.000000pt" viewBox="0 0 512.000000 512.000000"
 preserveAspectRatio="xMidYMid meet">
<metadata>
Created by potrace 1.11, written by Peter Selinger 2001-2013
</metadata>
<g transform="translate(0.000000,512.000000) scale(0.100000,-0.100000)"
fill="#000000" stroke="none">
<path d="M2471 4978 c-56 -16 -1942 -1097 -1984 -1137 -21 -20 -51 -58 -65
-86 l-27 -50 0 -1145 0 -1145 27 -50 c14 -27 44 -66 65 -86 46 -44 1930 -1122
1988 -1138 53 -14 141 -13 186 3 42 15 1882 1064 1947 1109 47 34 99 107 108
155 4 18 11 35 15 38 5 3 9 495 9 1114 0 619 -4 1111 -9 1114 -4 3 -11 20 -15
38 -9 48 -61 121 -108 155 -64 45 -1907 1095 -1948 1109 -41 15 -141 16 -189
2z m429 -1001 c184 -106 490 -282 680 -392 190 -109 353 -205 363 -213 16 -14
17 -65 17 -812 0 -747 -1 -798 -17 -812 -10 -8 -200 -120 -423 -248 -223 -128
-521 -300 -663 -382 -142 -82 -268 -154 -282 -160 -25 -11 -24 -12 -575 307
-102 59 -306 177 -455 262 -148 86 -296 171 -328 190 l-57 34 0 809 0 809 93
54 c50 30 193 113 317 184 124 71 317 183 430 248 463 268 545 315 555 315 6
0 161 -87 345 -193z"/>
<path d="M2310 3849 c-135 -78 -413 -238 -617 -356 l-373 -215 0 -718 0 -718
377 -218 c208 -120 477 -275 599 -345 121 -70 232 -133 246 -140 24 -11 54 5
430 222 221 128 498 287 613 354 l210 121 0 724 0 724 -210 121 c-115 67 -391
226 -611 353 -221 128 -406 232 -411 232 -5 0 -119 -63 -253 -141z m395 -684
c284 -75 475 -317 475 -605 0 -344 -276 -620 -620 -620 -286 0 -534 194 -605
475 -8 32 -15 98 -15 145 0 284 193 532 470 604 74 20 221 20 295 1z"/>
</g>
</svg>
